<?xml version="1.0" standalone="no"?>
<!DOCTYPE svg PUBLIC "-//W3C//DTD SVG 20010904//EN"
 "http://www.w3.org/TR/2001/REC-SVG-20010904/DTD/svg10.dtd">
<svg version="1.0" xmlns="http://www.w3.org/2000/svg"
 width="900.000000pt" height="1200.000000pt" viewBox="0 0 900.000000 1200.000000"
 preserveAspectRatio="xMidYMid meet">
<metadata>
Created by potrace 1.10, written by Peter Selinger 2001-2011
</metadata>
<g transform="translate(0.000000,1200.000000) scale(0.100000,-0.100000)"
fill="#000000" stroke="none">
<path d="M0 6000 l0 -6000 4500 0 4500 0 0 6000 0 6000 -4500 0 -4500 0 0
-6000z m8897 5914 c3 -9 -163 -177 -412 -418 -44 -43 -115 -112 -158 -154
l-77 -77 -3753 -5 -3752 -5 -3 -5251 -2 -5251 -336 -338 c-198 -198 -340 -333
-345 -328 -5 5 -8 2445 -7 5919 l3 5909 4410 5 c2426 3 4414 5 4419 4 6 0 11
-5 13 -10z m-725 -1761 c2 -566 0 -1039 -3 -1053 -6 -23 -6 -23 -13 10 -48
225 -202 537 -365 740 -69 86 -86 105 -161 180 -267 268 -600 451 -970 534
-172 39 -272 48 -476 43 -109 -3 -228 -10 -264 -16 -103 -17 -274 -60 -325
-81 -11 -4 -49 -18 -85 -31 -159 -56 -393 -193 -550 -322 -95 -78 -207 -192
-279 -282 -31 -38 -58 -72 -61 -75 -10 -10 -78 -115 -117 -180 -59 -100 -117
-224 -153 -330 -12 -36 -26 -74 -30 -85 -5 -11 -14 -42 -20 -70 -6 -27 -18
-79 -26 -115 -50 -221 -50 -562 0 -805 34 -168 99 -359 165 -485 36 -71 112
-203 120 -210 3 -3 21 -27 40 -55 88 -128 252 -304 371 -397 30 -23 57 -45 60
-49 14 -16 148 -103 216 -140 326 -176 575 -244 939 -256 252 -8 545 43 760
132 17 7 45 19 64 26 100 40 336 174 371 209 3 3 21 16 40 30 95 67 314 285
396 395 88 117 182 278 234 400 12 28 28 64 36 82 8 17 14 36 14 42 0 6 4 19
9 29 11 19 35 100 47 152 7 33 7 33 13 10 3 -14 5 -487 3 -1052 l-2 -1028
-3680 0 c-2447 0 -3680 3 -3680 10 0 6 0 1155 0 2555 0 1400 0 2550 0 2555 0
7 1233 10 3680 10 l3680 0 2 -1027z m-2 -6773 l0 -2570 -3680 0 -3680 0 0 23
c0 12 0 482 -1 1045 -1 562 1 1025 4 1028 3 3 8 -10 12 -28 22 -107 77 -253
152 -405 29 -58 144 -243 183 -293 202 -261 463 -472 745 -604 44 -20 88 -41
97 -46 10 -6 23 -10 29 -10 6 0 25 -6 42 -14 28 -12 92 -32 217 -66 203 -56
592 -66 825 -21 123 24 257 61 297 82 10 5 23 9 29 9 13 0 46 14 189 83 274
130 533 346 715 594 36 48 68 93 73 98 8 11 78 129 91 155 4 8 15 29 24 45 9
17 23 46 31 65 8 19 23 55 34 80 60 135 109 326 132 510 12 96 12 393 0 490
-27 214 -91 430 -187 625 -39 80 -138 250 -158 271 -5 6 -17 22 -25 34 -72
108 -285 326 -390 400 -19 14 -43 33 -54 43 -12 10 -41 30 -66 44 -25 14 -47
29 -50 32 -13 15 -190 105 -305 156 -110 48 -309 100 -480 126 -90 13 -427 13
-525 0 -120 -17 -288 -53 -320 -70 -9 -5 -30 -12 -49 -16 -18 -4 -44 -13 -59
-21 -15 -8 -33 -14 -40 -14 -7 0 -20 -4 -30 -9 -9 -5 -53 -27 -97 -48 -207
-98 -392 -232 -560 -405 -128 -131 -158 -168 -248 -301 -53 -79 -144 -249
-187 -352 -19 -45 -68 -203 -75 -239 -3 -21 -9 -36 -12 -32 -3 3 -5 472 -4
1043 1 571 1 1041 1 1046 0 4 1656 7 3680 7 l3680 0 0 -2570z m750 -3297 c0
-58 -43 -22 -371 310 -181 182 -329 334 -329 336 0 3 8 13 17 23 16 18 30 6
350 -314 241 -240 333 -339 333 -355z"/>
</g>
</svg>
